# xmcd CD database file
#
# Track frame offsets:
#	150
#	11965
#	28591
#	40274
#	56153
#
# Disc length: 915 seconds
#
# Revision: 0
# Processed by: cddbd v1.5.1PL0 Copyright (c) Steve Scherf et al.
# Submitted via: CDex 1.51
#
DISCID=3e039105
DTITLE=the gurlz - Finally
DYEAR=2004
DGENRE=Country
TTITLE0=window shopping
TTITLE1=the gurlz - the river
TTITLE2=the gurlz - the outback club
TTITLE3=the gurlz - standing knee deep in the river
TTITLE4=the gurlz - devil in disguise
EXTD=YEAR: 2004
EXTT0=
EXTT1=
EXTT2=
EXTT3=
EXTT4=
PLAYORDER=
